<svg xmlns="http://www.w3.org/2000/svg" width="25" height="25"><g fill="none" fill-rule="evenodd"><path d="M-3-3h31.347v31.347H-3z"/><path fill="#FFF" d="M5.647 11.093a19.786 19.786 0 0 0 8.607 8.607l2.873-2.873a1.3 1.3 0 0 1 1.333-.314c1.462.484 3.043.745 4.662.745a1.31 1.31 0 0 1 1.307 1.306v4.558a1.31 1.31 0 0 1-1.307 1.307C10.858 24.429.918 14.489.918 2.224A1.31 1.31 0 0 1 2.224.918h4.572a1.31 1.31 0 0 1 1.306 1.306c0 1.633.261 3.2.745 4.663.143.457.039.967-.327 1.333l-2.873 2.873z"/></g></svg>