<?xml version="1.0" encoding="utf-8"?>
<!-- Generator: Adobe Illustrator 23.1.0, SVG Export Plug-In . SVG Version: 6.00 Build 0)  -->
<svg version="1.1" id="Layer_1" xmlns="http://www.w3.org/2000/svg" xmlns:xlink="http://www.w3.org/1999/xlink" x="0px" y="0px"
	 viewBox="0 0 1015.5 427" style="enable-background:new 0 0 1015.5 427;" xml:space="preserve">
<style type="text/css">
	.st0{fill:#DA2D2E;}
	.st1{display:none;}
	.st2{display:inline;}
	.st3{font-family:'Montserrat-Bold';}
	.st4{font-size:191px;}
	.st5{font-family:'Montserrat-SemiBold';}
	.st6{font-size:153.3637px;}
	.st7{display:inline;fill:#DA2D2E;}
	.st8{font-size:130px;}
</style>
<g>
	<g>
		<path class="st0" d="M503.1,140.8c-28.6-6.3-81.7-15-188.9-6.4c35.9-15.9,64.2-35,94.1-62.2C368.4,46.7,311.7,16.6,253.6,44
			C198.2,70.2,133.2,136.7,116.2,165c-2.1-1.2-1.3-11.3-1.1-15.7c0.4-8.5,1.2-20.1-11.9-20.1c-5.6,0-13.6,2.3-23.9,5.8
			c-10.6,3.6-16.9,3.5-21.7,12.7c-3.2,6.2-7.1,15.2-4.7,19.9c3,6.1,41.4,15.9,50.5,17.9C95.3,191,12.2,224.2,0,281
			C65.2,156.1,413.7,128.5,503.1,140.8z"/>
		<path class="st0" d="M442.2,38.8C558.1,19,700.3,18,815.9,32.4c9.7,1.1,21.1,3.5,30.8,5.4l7,1.4c6.8,1.4,19.7,8.2,22,15.2
			c3.1,9.8-1.5,20.4-1.5,20.4c13.8-20,0.7-43.2-19.8-47.3C705-2.1,446.2-12.5,300.9,20.1C308.4,19.5,359.2,10,442.2,38.8z"/>
		<path class="st0" d="M536.3,48.2c-60.3,3.1-69.1,27.7-69.2,41.7l-48.6-14.7c123.5,55,177.8,75,318.9,80.8
			c75.6,3.1,132.6,2,179.2-17.4c0,0,14.1-5.9,2.4-18c-6.9-7.2-28.5-29.1-45-45.9c-11.4-11.5-20.3-20.5-20.3-20.5
			S637,33.1,536.3,48.2z"/>
		<path class="st0" d="M1015.2,218.4c0,0-2.4-28.6-8.7-39.9c-12-21.7-51.8-31-81-48.7l30.2,22.3l-6.8,10.9
			c-9.4,14.9-5.7,41.6-6,59.3h64.6c-13,41.6-155.3,43.6-172.1,45.3C851.5,267.2,1023.6,265.9,1015.2,218.4z"/>
		<path class="st0" d="M470.1,225.4h134.2l-10.1-27.7c-8.5-23.3-21-32.9-60.8-42.8c-49.1-12.1-205-10.1-102,61.3
			c83,57.6,276.9,55.2,337.8,51.9C769.2,268.2,612,272.5,470.1,225.4z"/>
		<path class="st0" d="M786.8,277.4h31.3c8,0,8.7-3,13.8-9.8h-59.6C777.4,275,778.4,277.4,786.8,277.4z"/>
	</g>
</g>
<text transform="matrix(1 0 0 1 32.7308 424.6866)" class="st1"><tspan x="0" y="0" class="st2 st3 st4">CAR</tspan><tspan x="426.7" y="0" class="st2 st5 st6"> </tspan><tspan x="469" y="0" class="st7 st5 st8">GOODS</tspan></text>
<g>
	<path d="M75.6,418.1c-11-5.9-19.7-14.1-26-24.6c-6.3-10.5-9.5-22.4-9.5-35.6c0-13.2,3.2-25.1,9.5-35.6c6.3-10.5,15-18.7,26-24.6
		c11-5.9,23.4-8.9,37.1-8.9c11.6,0,22.1,2,31.4,6.1c9.4,4.1,17.2,9.9,23.6,17.6l-19.9,18.3c-9-10.4-20.2-15.7-33.6-15.7
		c-8.3,0-15.7,1.8-22.2,5.4c-6.5,3.6-11.6,8.7-15.2,15.2c-3.6,6.5-5.4,13.9-5.4,22.2c0,8.3,1.8,15.7,5.4,22.2
		c3.6,6.5,8.7,11.6,15.2,15.2c6.5,3.6,13.9,5.4,22.2,5.4c13.4,0,24.6-5.3,33.6-15.9l19.9,18.3c-6.4,7.8-14.3,13.7-23.7,17.8
		c-9.4,4.1-19.9,6.1-31.5,6.1C98.9,427,86.6,424,75.6,418.1z"/>
	<path d="M274,396h-62.1L200,424.7h-31.7L227.9,291h30.6l59.8,133.7h-32.5L274,396z M264.2,372.5L243,321.4l-21.2,51.2H264.2z"/>
	<path d="M417.4,424.7l-25.8-37.2h-1.5h-26.9v37.2h-30.9V291h57.9c11.8,0,22.1,2,30.8,5.9c8.7,3.9,15.4,9.6,20.2,16.8
		c4.7,7.3,7.1,15.9,7.1,25.8c0,9.9-2.4,18.5-7.2,25.7c-4.8,7.2-11.6,12.7-20.3,16.5l30,43H417.4z M409.6,322.2c-4.8-4-11.9-6-21.2-6
		h-25.2v46.6h25.2c9.3,0,16.4-2,21.2-6.1c4.8-4.1,7.3-9.8,7.3-17.2C416.8,332,414.4,326.2,409.6,322.2z"/>
	<path class="st0" d="M573.4,378.1h16v36.3c-4.7,3.7-10.1,6.6-16.4,8.6c-6.2,2-12.7,3-19.2,3c-9.3,0-17.6-2-25.1-6
		c-7.5-4-13.3-9.6-17.5-16.7c-4.2-7.1-6.4-15.1-6.4-24c0-8.9,2.1-16.9,6.4-24c4.2-7.1,10.1-12.7,17.6-16.7c7.5-4,15.9-6,25.3-6
		c7.6,0,14.6,1.3,20.8,3.8c6.2,2.5,11.5,6.2,15.7,11l-10.7,10.4c-6.9-6.9-15.3-10.4-25.1-10.4c-6.4,0-12.1,1.3-17.1,4
		c-5,2.7-8.9,6.5-11.7,11.3c-2.8,4.9-4.2,10.4-4.2,16.6c0,6.1,1.4,11.5,4.2,16.4c2.8,4.9,6.7,8.7,11.7,11.4c5,2.8,10.6,4.2,17,4.2
		c7.1,0,13.3-1.6,18.7-4.7V378.1z"/>
	<path class="st0" d="M629.1,419.9c-7.5-4-13.3-9.6-17.5-16.8c-4.2-7.2-6.4-15.1-6.4-24s2.1-16.8,6.4-24
		c4.2-7.1,10.1-12.7,17.5-16.8c7.5-4,15.8-6,25.1-6c9.3,0,17.6,2,25.1,6c7.5,4,13.3,9.6,17.5,16.7c4.2,7.1,6.4,15.1,6.4,24
		c0,8.9-2.1,16.9-6.4,24c-4.2,7.1-10.1,12.7-17.5,16.7c-7.5,4-15.8,6-25.1,6C644.9,426,636.5,424,629.1,419.9z M670.5,407.1
		c4.9-2.7,8.7-6.5,11.4-11.4c2.8-4.9,4.2-10.4,4.2-16.4c0-6.1-1.4-11.5-4.2-16.4c-2.8-4.9-6.6-8.7-11.4-11.4
		c-4.9-2.7-10.3-4.1-16.4-4.1c-6.1,0-11.5,1.4-16.4,4.1c-4.9,2.7-8.7,6.5-11.4,11.4c-2.8,4.9-4.2,10.4-4.2,16.4
		c0,6.1,1.4,11.5,4.2,16.4c2.8,4.9,6.6,8.7,11.4,11.4c4.9,2.7,10.3,4.1,16.4,4.1C660.2,411.2,665.7,409.8,670.5,407.1z"/>
	<path class="st0" d="M738.5,419.9c-7.5-4-13.3-9.6-17.5-16.8c-4.2-7.2-6.4-15.1-6.4-24s2.1-16.8,6.4-24
		c4.2-7.1,10.1-12.7,17.5-16.8c7.5-4,15.8-6,25.1-6c9.3,0,17.6,2,25.1,6c7.5,4,13.3,9.6,17.5,16.7c4.2,7.1,6.4,15.1,6.4,24
		c0,8.9-2.1,16.9-6.4,24c-4.2,7.1-10.1,12.7-17.5,16.7c-7.5,4-15.8,6-25.1,6C754.3,426,746,424,738.5,419.9z M780,407.1
		c4.9-2.7,8.7-6.5,11.4-11.4c2.8-4.9,4.2-10.4,4.2-16.4c0-6.1-1.4-11.5-4.2-16.4c-2.8-4.9-6.6-8.7-11.4-11.4
		c-4.9-2.7-10.3-4.1-16.4-4.1c-6.1,0-11.5,1.4-16.4,4.1c-4.9,2.7-8.7,6.5-11.4,11.4c-2.8,4.9-4.2,10.4-4.2,16.4
		c0,6.1,1.4,11.5,4.2,16.4c2.8,4.9,6.6,8.7,11.4,11.4c4.9,2.7,10.3,4.1,16.4,4.1C769.7,411.2,775.1,409.8,780,407.1z"/>
	<path class="st0" d="M830.6,333.7h39.8c9.7,0,18.3,1.9,25.9,5.7c7.5,3.8,13.4,9.1,17.5,16c4.2,6.9,6.2,14.8,6.2,23.9
		c0,9-2.1,17-6.2,23.9c-4.2,6.9-10,12.2-17.5,16c-7.5,3.8-16.2,5.7-25.9,5.7h-39.8V333.7z M869.6,410.4c6.7,0,12.5-1.3,17.6-3.8
		c5.1-2.6,9-6.2,11.7-10.9c2.7-4.7,4.1-10.2,4.1-16.4s-1.4-11.7-4.1-16.4c-2.7-4.7-6.6-8.4-11.7-10.9c-5.1-2.6-10.9-3.8-17.6-3.8
		h-22.1v62.4H869.6z"/>
	<path class="st0" d="M945.8,423c-6.5-2-11.7-4.6-15.5-7.9l5.9-13.1c3.7,2.9,8.3,5.4,13.7,7.2c5.4,1.9,10.9,2.8,16.3,2.8
		c6.8,0,11.8-1.1,15.1-3.3c3.3-2.2,5-5,5-8.6c0-2.6-0.9-4.7-2.8-6.4c-1.9-1.7-4.2-3-7.1-4c-2.9-1-6.8-2-11.7-3.3
		c-6.9-1.6-12.5-3.3-16.8-4.9c-4.3-1.6-8-4.2-11-7.7c-3.1-3.5-4.6-8.3-4.6-14.2c0-5,1.4-9.6,4.1-13.7c2.7-4.1,6.8-7.4,12.4-9.8
		c5.5-2.4,12.2-3.6,20.2-3.6c5.5,0,11,0.7,16.4,2.1c5.4,1.4,10,3.4,13.9,6l-5.3,13.1c-4-2.3-8.1-4.1-12.5-5.3
		c-4.3-1.2-8.5-1.8-12.6-1.8c-6.7,0-11.6,1.1-14.9,3.4c-3.3,2.3-4.9,5.2-4.9,9c0,2.6,0.9,4.7,2.8,6.4c1.9,1.6,4.2,2.9,7.1,3.9
		c2.9,1,6.8,2,11.7,3.3c6.8,1.6,12.3,3.2,16.6,4.9c4.3,1.7,8,4.3,11.1,7.7c3.1,3.5,4.6,8.1,4.6,14c0,5-1.4,9.6-4.1,13.7
		c-2.7,4.1-6.9,7.3-12.4,9.8c-5.5,2.4-12.3,3.6-20.3,3.6C959.1,426,952.4,425,945.8,423z"/>
</g>
</svg>
