<?xml version="1.0" encoding="utf-8"?>
<!-- Generator: Adobe Illustrator 22.0.0, SVG Export Plug-In . SVG Version: 6.00 Build 0)  -->
<svg version="1.1" id="Capa_1" xmlns="http://www.w3.org/2000/svg" xmlns:xlink="http://www.w3.org/1999/xlink" x="0px" y="0px"
	 viewBox="0 0 512 512" style="enable-background:new 0 0 512 512;" xml:space="preserve">
<style type="text/css">
	.st0{fill:#2F333D;}
</style>
<g>
	<g>
		<g>
			<path class="st0" d="M11.6,267.9h460.7l-96.5,96.5c-4.6,4.5-4.6,11.9-0.1,16.5c4.5,4.6,11.9,4.6,16.5,0.1l116.4-116.4
				c4.5-4.5,4.5-11.9,0-16.4L392.3,131.8c-4.2-4.9-11.5-5.4-16.4-1.3c-4.9,4.2-5.4,11.5-1.3,16.4c0.4,0.5,0.8,0.9,1.3,1.3l96.5,96.5
				H11.6c-6.4,0-11.6,5.2-11.6,11.6C0,262.7,5.2,267.9,11.6,267.9z"/>
		</g>
	</g>
</g>
</svg>
