<?xml version="1.0"?>
<svg xmlns="http://www.w3.org/2000/svg" xmlns:xlink="http://www.w3.org/1999/xlink" xmlns:svgjs="http://svgjs.com/svgjs" version="1.1" width="512" height="512" x="0" y="0" viewBox="0 0 511 511" style="enable-background:new 0 0 512 512" xml:space="preserve"><g>
<g xmlns="http://www.w3.org/2000/svg">
	<path d="M503.5,272h-312c-4.142,0-7.5,3.358-7.5,7.5s3.358,7.5,7.5,7.5h312c4.142,0,7.5-3.358,7.5-7.5S507.642,272,503.5,272z" fill="#ffffff" data-original="#000000" style=""/>
	<path d="M503.5,224h-312c-4.142,0-7.5,3.358-7.5,7.5s3.358,7.5,7.5,7.5h312c4.142,0,7.5-3.358,7.5-7.5S507.642,224,503.5,224z" fill="#ffffff" data-original="#000000" style=""/>
	<path d="M119.5,184h-96C10.542,184,0,194.542,0,207.5v96C0,316.458,10.542,327,23.5,327h96c12.958,0,23.5-10.542,23.5-23.5v-96   C143,194.542,132.458,184,119.5,184z M128,303.5c0,4.687-3.813,8.5-8.5,8.5h-96c-4.687,0-8.5-3.813-8.5-8.5v-96   c0-4.687,3.813-8.5,8.5-8.5h96c4.687,0,8.5,3.813,8.5,8.5V303.5z" fill="#ffffff" data-original="#000000" style=""/>
	<path d="M503.5,96h-312c-4.142,0-7.5,3.358-7.5,7.5s3.358,7.5,7.5,7.5h312c4.142,0,7.5-3.358,7.5-7.5S507.642,96,503.5,96z" fill="#ffffff" data-original="#000000" style=""/>
	<path d="M191.5,63h312c4.142,0,7.5-3.358,7.5-7.5s-3.358-7.5-7.5-7.5h-312c-4.142,0-7.5,3.358-7.5,7.5S187.358,63,191.5,63z" fill="#ffffff" data-original="#000000" style=""/>
	<path d="M119.5,8h-96C10.542,8,0,18.542,0,31.5v96C0,140.458,10.542,151,23.5,151h96c12.958,0,23.5-10.542,23.5-23.5v-96   C143,18.542,132.458,8,119.5,8z M128,127.5c0,4.687-3.813,8.5-8.5,8.5h-96c-4.687,0-8.5-3.813-8.5-8.5v-96   c0-4.687,3.813-8.5,8.5-8.5h96c4.687,0,8.5,3.813,8.5,8.5V127.5z" fill="#ffffff" data-original="#000000" style=""/>
	<path d="M503.5,448h-312c-4.142,0-7.5,3.358-7.5,7.5s3.358,7.5,7.5,7.5h312c4.142,0,7.5-3.358,7.5-7.5S507.642,448,503.5,448z" fill="#ffffff" data-original="#000000" style=""/>
	<path d="M503.5,400h-312c-4.142,0-7.5,3.358-7.5,7.5s3.358,7.5,7.5,7.5h312c4.142,0,7.5-3.358,7.5-7.5S507.642,400,503.5,400z" fill="#ffffff" data-original="#000000" style=""/>
	<path d="M119.5,360h-96C10.542,360,0,370.542,0,383.5v96C0,492.458,10.542,503,23.5,503h96c12.958,0,23.5-10.542,23.5-23.5v-96   C143,370.542,132.458,360,119.5,360z M128,479.5c0,4.687-3.813,8.5-8.5,8.5h-96c-4.687,0-8.5-3.813-8.5-8.5v-96   c0-4.687,3.813-8.5,8.5-8.5h96c4.687,0,8.5,3.813,8.5,8.5V479.5z" fill="#ffffff" data-original="#000000" style=""/>
</g>
<g xmlns="http://www.w3.org/2000/svg">
</g>
<g xmlns="http://www.w3.org/2000/svg">
</g>
<g xmlns="http://www.w3.org/2000/svg">
</g>
<g xmlns="http://www.w3.org/2000/svg">
</g>
<g xmlns="http://www.w3.org/2000/svg">
</g>
<g xmlns="http://www.w3.org/2000/svg">
</g>
<g xmlns="http://www.w3.org/2000/svg">
</g>
<g xmlns="http://www.w3.org/2000/svg">
</g>
<g xmlns="http://www.w3.org/2000/svg">
</g>
<g xmlns="http://www.w3.org/2000/svg">
</g>
<g xmlns="http://www.w3.org/2000/svg">
</g>
<g xmlns="http://www.w3.org/2000/svg">
</g>
<g xmlns="http://www.w3.org/2000/svg">
</g>
<g xmlns="http://www.w3.org/2000/svg">
</g>
<g xmlns="http://www.w3.org/2000/svg">
</g>
</g></svg>
