<svg xmlns="http://www.w3.org/2000/svg" viewBox="0 0 24 24" width="24" height="24">
    <path fill="#fff" d="M20.48 10.46L15.44 6.15a6.72 6.72 0 0 0-.72-.43l-.28-.1-.28.1c-.24.09-5.96 2.26-9.43 5.92l-.12.12-.12-.12c-3.47-3.66-9.19-5.83-9.43-5.92L1.24 5.35c-.19.07-.36.17-.51.3-.26.21-.43.49-.52.79a2.74 2.74 0 0 0 0 1.82c.09.3.26.57.52.79.15.13.32.23.51.3l4.31 1.56a6.73 6.73 0 0 0 .72.43l.28.1.28-.1c.24-.09 5.96-2.26 9.43-5.92l.12-.12.12.12c3.47 3.66 9.19 5.83 9.43 5.92l.28.1c.19-.07.36-.17.51-.3.26-.21.43-0.49.52-0.79a2.74 2.74 0 0 0 0-1.82c-.09-0.3-0.26-0.57-0.52-0.79z"/>
    <path fill="#fff" d="M12 16.97c-0.8 0-1.55-0.16-2.22-0.43l-0.4-0.17-0.17 0.4c-0.26 0.67-0.43 1.42-0.43 2.22 0 2.07 1.47 3.78 3.43 4.2v-2.55c-0.7-0.36-1.18-1.09-1.18-1.96 0-1.2 0.97-2.17 2.17-2.17 0.87 0 1.6 0.48 1.96 1.18h2.55c-0.42-1.96-2.13-3.43-4.2-3.43z"/>
</svg>
